<svg width="998" height="851" viewBox="0 0 998 851" fill="none" xmlns="http://www.w3.org/2000/svg">
<g clip-path="url(#clip0_26_3438)">
<path d="M56.4299 -6.35236V183.167" stroke="#C8CACE" stroke-width="6" stroke-miterlimit="10"/>
<path d="M104.972 -6.35236V158.585" stroke="#C8CACE" stroke-width="6" stroke-miterlimit="10"/>
<path d="M155.402 17.5815V131.263" stroke="#C8CACE" stroke-width="6" stroke-miterlimit="10"/>
<path d="M5.74585 329.066L155.963 411.661V574.069L5.74585 656.943" stroke="#C8CACE" stroke-width="6" stroke-miterlimit="10"/>
<path d="M5.74585 382.282L105.386 436.87V546.355L5.74585 600.126" stroke="#C8CACE" stroke-width="6" stroke-miterlimit="10"/>
<path d="M155.963 574.069L105.386 546.355" stroke="#C8CACE" stroke-width="6" stroke-miterlimit="10"/>
<path d="M5.74585 436.87L55.566 465.425L56.6582 519.196L5.74585 546.355" stroke="#C8CACE" stroke-width="6" stroke-miterlimit="10"/>
<path d="M998.008 852.433H751.013" stroke="#C8CACE" stroke-width="6" stroke-miterlimit="10"/>
<path d="M751.013 795.427L848.747 852.433" stroke="#C8CACE" stroke-width="6" stroke-miterlimit="10"/>
<path d="M751.013 742.211L897.989 823.926V852.433" stroke="#C8CACE" stroke-width="6" stroke-miterlimit="10"/>
<path d="M751.013 686.782L946.553 795.427L946.61 852.433" stroke="#C8CACE" stroke-width="6" stroke-miterlimit="10"/>
<path d="M997.294 494.011L751.013 631.988L998.008 769.608" stroke="#C8CACE" stroke-width="6" stroke-miterlimit="10"/>
<path d="M997.058 546.355L798.999 658.727" stroke="#C8CACE" stroke-width="6" stroke-miterlimit="10"/>
<path d="M997.294 602.537L848.812 686.481" stroke="#C8CACE" stroke-width="6" stroke-miterlimit="10"/>
<path d="M998.008 658.727L898.032 713.902" stroke="#C8CACE" stroke-width="6" stroke-miterlimit="10"/>
<path d="M998.008 711.539L946.61 740.974" stroke="#C8CACE" stroke-width="6" stroke-miterlimit="10"/>
<path d="M152.828 21.9415L209.222 -8.19135" stroke="#C8CACE" stroke-width="6" stroke-miterlimit="10"/>
<path d="M203.941 106.408V53.0252L253.269 24.5734L501.406 161.353L698.902 52.3274V-3.97345" stroke="#C8CACE" stroke-width="6" stroke-miterlimit="10"/>
<path d="M649.645 -6.35236L649.981 24.5734L501.406 104.576V52.4701L604.672 -6.35236" stroke="#C8CACE" stroke-width="6" stroke-miterlimit="10"/>
<path d="M401.223 -6.35236L501.406 52.4701" stroke="#C8CACE" stroke-width="6" stroke-miterlimit="10"/>
<path d="M499.278 108.254L299.855 -2.67438" stroke="#C8CACE" stroke-width="6" stroke-miterlimit="10"/>
<path d="M405.613 546.355L356.25 575.687L503.669 658.727L652.122 573.546" stroke="#C8CACE" stroke-width="6" stroke-miterlimit="10"/>
<path d="M751.013 -6.35236V79.1059L501.406 216.543L451.421 245.645V518.363L501.406 546.355L552.011 516.873" stroke="#C8CACE" stroke-width="6" stroke-miterlimit="10"/>
<path d="M751.013 26.4131L799.184 52.4701V107.899L552.561 243.433L501.406 216.543V161.353" stroke="#C8CACE" stroke-width="6" stroke-miterlimit="10"/>
<path d="M799.184 -7.95416L847.584 23.8518L849.583 134.923L601.217 271.195V436.236L747.444 519.386" stroke="#C8CACE" stroke-width="6" stroke-miterlimit="10"/>
<path d="M897.989 -4.76642V161.353L849.583 134.923" stroke="#C8CACE" stroke-width="6" stroke-miterlimit="10"/>
<path d="M946.139 -4.76642V188.274L993.725 215.679L751.013 354.568V631.988L699.822 660.424L552.561 742.211" stroke="#C8CACE" stroke-width="6" stroke-miterlimit="10"/>
<path d="M948.016 519.386L946.61 465.147L997.058 439.059" stroke="#C8CACE" stroke-width="6" stroke-miterlimit="10"/>
<path d="M699.615 848.468C701.043 845.297 699.822 660.416 699.822 660.416" stroke="#C8CACE" stroke-width="6" stroke-miterlimit="10"/>
<path d="M651.48 852.433L649.981 688.106" stroke="#C8CACE" stroke-width="6" stroke-miterlimit="10"/>
<path d="M599.582 716.098L601.217 823.926L544.358 852.433" stroke="#C8CACE" stroke-width="6" stroke-miterlimit="10"/>
<path d="M946.139 188.274L698.901 327.4V382.282L751.013 409.996" stroke="#C8CACE" stroke-width="6" stroke-miterlimit="10"/>
<path d="M900.79 165.031L652.782 305.029V413.674L753.814 467.445" stroke="#C8CACE" stroke-width="6" stroke-miterlimit="10"/>
<path d="M601.241 271.364L653.062 304.466" stroke="#C8CACE" stroke-width="6" stroke-miterlimit="10"/>
<path d="M998.008 271.195L798.842 383.789L798.999 602.537" stroke="#C8CACE" stroke-width="6" stroke-miterlimit="10"/>
<path d="M998.008 326.853L849.525 409.956L849.583 576.766" stroke="#C8CACE" stroke-width="6" stroke-miterlimit="10"/>
<path d="M998.008 381.172L898.425 439.058V549.4" stroke="#C8CACE" stroke-width="6" stroke-miterlimit="10"/>
<path d="M700.308 602.537C700.308 602.537 507.588 711.285 502.041 713.751L302.711 600.118" stroke="#C8CACE" stroke-width="6" stroke-miterlimit="10"/>
<path d="M203.941 327.424C206.797 328.939 246.359 303.857 252.862 299.718C253.426 299.353 254.118 299.337 254.704 299.654L301.611 325.307C302.282 325.672 302.711 326.433 302.711 327.266V598.858C302.711 599.643 302.332 600.364 301.718 600.753L258.052 628.396C256.695 629.26 256.738 631.449 258.137 632.242L500.656 769.124C501.206 769.433 501.848 769.441 502.398 769.14L549.741 743.725C551.047 743.027 552.561 744.082 552.561 745.692V794.079C552.561 794.903 552.14 795.657 551.476 796.029L502.405 823.434C501.848 823.744 501.192 823.744 500.642 823.434L256.331 686.909C255.675 686.544 255.261 685.799 255.246 684.982L254.725 631.806L252.034 355.773C252.027 354.956 251.613 354.219 250.956 353.854C234.509 344.608 26.5193 230.706 2.88345 217.265C1.95544 216.734 2.66215 212.23 3.59731 211.714L251.863 79.78C252.412 79.4707 253.062 79.4707 253.619 79.78L500.306 215.949C500.978 216.321 501.399 217.075 501.399 217.907V486.288C501.399 487.104 501.806 487.85 502.455 488.223L749.95 631.385C750.599 631.758 751.006 632.511 751.006 633.32V850.261C751.006 851.466 750.128 852.441 749.043 852.441H5.74602" stroke="#C8CACE" stroke-width="6" stroke-miterlimit="10"/>
<path d="M458.524 852.433L254.268 742.211V795.427L356.4 852.433" stroke="#C8CACE" stroke-width="6" stroke-miterlimit="10"/>
<path d="M155.799 852.433C157.091 852.433 254.268 795.427 254.268 795.427" stroke="#C8CACE" stroke-width="6" stroke-miterlimit="10"/>
<path d="M252.501 738.466L105.443 821.313V852.483" stroke="#C8CACE" stroke-width="6" stroke-miterlimit="10"/>
<path d="M255.268 686.314L56.6582 795.427V852.433" stroke="#C8CACE" stroke-width="6" stroke-miterlimit="10"/>
<path d="M5.74585 711.911L205.033 602.545L254.882 630.41C254.882 630.41 12.1706 766.793 5.74585 769.378" stroke="#C8CACE" stroke-width="6" stroke-miterlimit="10"/>
<path d="M5.74585 271.195L204.198 382.996L205.033 602.537" stroke="#C8CACE" stroke-width="6" stroke-miterlimit="10"/>
<path d="M751.013 574.069L552.561 463.767V243.433" stroke="#C8CACE" stroke-width="6" stroke-miterlimit="10"/>
<path d="M55.0022 245.812L253.269 133.638L451.421 245.645" stroke="#C8CACE" stroke-width="6" stroke-miterlimit="10"/>
<path d="M103.544 272.773L254.04 188.274L403.472 275.58V546.355L501.406 602.537L599.582 546.355" stroke="#C8CACE" stroke-width="6" stroke-miterlimit="10"/>
<path d="M154.942 299.877C157.798 299.734 254.04 245.637 254.04 245.637L352.481 299.131L403.464 275.572" stroke="#C8CACE" stroke-width="6" stroke-miterlimit="10"/>
<path d="M349.907 575.687L348.286 299.131" stroke="#C8CACE" stroke-width="6" stroke-miterlimit="10"/>
<path d="M1.1416 -7.95416L5.74598 857.984" stroke="#C8CACE" stroke-width="6" stroke-miterlimit="10"/>
<path d="M-1 -11H723V861.08H-1V-11Z" fill="url(#paint0_linear_26_3438)"/>
</g>
<defs>
<linearGradient id="paint0_linear_26_3438" x1="41.4933" y1="425.04" x2="252.268" y2="420.991" gradientUnits="userSpaceOnUse">
<stop stop-color="#F2F2F2"/>
<stop offset="1" stop-color="#F2F2F2" stop-opacity="0.2"/>
</linearGradient>
<clipPath id="clip0_26_3438">
<rect width="1000" height="868" fill="white" transform="translate(-1 -10)"/>
</clipPath>
</defs>
</svg>
